<svg width="279" height="56" viewBox="0 0 279 56" fill="none" xmlns="http://www.w3.org/2000/svg">
<g clip-path="url(#clip0_26_9)">
<path d="M70.3867 31.7508C69.918 31.7508 69.5113 31.6025 69.1841 31.3146C68.8569 31.0268 68.6801 30.6691 68.6801 30.2505V7.58004C68.6801 7.16135 68.8215 6.82117 69.1045 6.53332C69.3875 6.24546 69.7412 6.11462 70.1656 6.11462H80.4141C81.8024 6.11462 83.0492 6.42864 84.1634 7.04796C85.2775 7.66727 86.1618 8.5221 86.8161 9.61244C87.4705 10.7028 87.7976 11.9501 87.7976 13.3632C87.7976 14.3925 87.6031 15.3433 87.2052 16.2417C86.8073 17.1314 86.2679 17.899 85.5693 18.5445C84.8796 19.19 84.0838 19.6872 83.1907 20.0274L82.3772 19.443C83.2172 19.6349 83.9777 19.9838 84.6409 20.4897C85.3129 20.9869 85.8523 21.6237 86.2767 22.3913C86.7012 23.1589 86.9222 24.0573 86.9488 25.0866C87.0018 25.9938 87.0637 26.709 87.1344 27.2498C87.2052 27.7906 87.3201 28.2093 87.4705 28.5146C87.6208 28.8199 87.833 29.0554 88.0983 29.2299C88.4431 29.448 88.6731 29.7445 88.788 30.1109C88.903 30.4772 88.8322 30.8349 88.5846 31.1751C88.4343 31.3931 88.2221 31.5501 87.9568 31.6286C87.6827 31.7159 87.4086 31.742 87.1433 31.7159C86.8692 31.6897 86.6393 31.6199 86.4359 31.4978C86.038 31.2797 85.6577 30.957 85.2864 30.5296C84.915 30.1022 84.6055 29.4828 84.3579 28.6804C84.1103 27.8779 83.9865 26.7788 83.9865 25.3832C83.9865 24.5981 83.8627 23.9526 83.6151 23.438C83.3675 22.9233 83.0315 22.5134 82.6159 22.1906C82.1915 21.8766 81.7228 21.6498 81.2011 21.5277C80.6794 21.4056 80.1488 21.3445 79.6006 21.3445H71.324L71.7661 20.6816V30.2417C71.7661 30.6604 71.6423 31.0093 71.3947 31.3059C71.1471 31.6025 70.8111 31.742 70.3955 31.742L70.3867 31.7508ZM71.3151 18.7103H80.4141C81.1304 18.6579 81.8024 18.4137 82.4391 17.9776C83.0669 17.5414 83.5886 16.9221 83.9953 16.1283C84.4021 15.3346 84.6055 14.4361 84.6055 13.433C84.6055 12.142 84.1899 11.0691 83.3587 10.2143C82.5275 9.35948 81.4841 8.93207 80.2196 8.93207H71.4566L71.7573 8.23425V19.3645L71.3151 18.7015V18.7103Z" fill="#1A1A1A"/>
<path d="M119.056 18.937C119.056 20.8211 118.747 22.557 118.128 24.1532C117.509 25.7495 116.642 27.1538 115.528 28.3489C114.414 29.5439 113.087 30.4772 111.558 31.1314C110.019 31.7943 108.357 32.1171 106.544 32.1171C104.731 32.1171 103.033 31.7856 101.512 31.1314C99.9915 30.4685 98.674 29.5439 97.5598 28.3489C96.4456 27.1538 95.5791 25.7582 94.9601 24.1532C94.3411 22.557 94.0316 20.8124 94.0316 18.937C94.0316 17.0616 94.3411 15.2822 94.9601 13.6859C95.5791 12.0897 96.4456 10.694 97.5598 9.50774C98.674 8.32144 99.9915 7.40556 101.512 6.74263C103.033 6.0797 104.713 5.75696 106.544 5.75696C108.374 5.75696 110.019 6.08842 111.558 6.74263C113.096 7.40556 114.414 8.32144 115.528 9.50774C116.642 10.694 117.509 12.0809 118.128 13.6859C118.747 15.2822 119.056 17.0355 119.056 18.937ZM115.864 18.937C115.864 16.9395 115.457 15.1688 114.661 13.6249C113.857 12.0897 112.76 10.8772 111.372 9.99621C109.984 9.11521 108.374 8.67908 106.544 8.67908C104.713 8.67908 103.095 9.11521 101.698 9.99621C100.301 10.8772 99.2045 12.0809 98.4087 13.6249C97.6129 15.1601 97.2238 16.9308 97.2238 18.937C97.2238 20.9432 97.6217 22.6791 98.4087 24.2317C99.2045 25.7844 100.292 26.9968 101.698 27.8778C103.095 28.7588 104.713 29.195 106.544 29.195C108.374 29.195 109.984 28.7588 111.372 27.8778C112.76 26.9968 113.857 25.7844 114.661 24.2317C115.466 22.6791 115.864 20.9171 115.864 18.937Z" fill="#1A1A1A"/>
<path d="M133.797 32.1172C131.966 32.1172 130.357 31.8468 128.968 31.3147C127.58 30.7826 126.245 29.9191 124.963 28.7502C124.786 28.5758 124.644 28.3926 124.538 28.1832C124.423 27.9739 124.37 27.7471 124.37 27.5029C124.37 27.1103 124.512 26.7614 124.795 26.4561C125.078 26.1508 125.431 26.0026 125.856 26.0026C126.201 26.0026 126.51 26.1334 126.784 26.4038C127.748 27.3284 128.792 28.0437 129.923 28.5321C131.046 29.0206 132.32 29.2649 133.726 29.2649C134.813 29.2649 135.795 29.0904 136.679 28.7502C137.555 28.41 138.253 27.9303 138.775 27.3197C139.297 26.7091 139.553 26.0026 139.553 25.1913C139.526 24.2144 139.235 23.4119 138.678 22.7751C138.121 22.1384 137.351 21.6063 136.379 21.1789C135.397 20.7515 134.265 20.3938 132.983 20.0973C131.842 19.8269 130.799 19.4954 129.844 19.1116C128.889 18.7191 128.067 18.2393 127.377 17.6636C126.687 17.0879 126.148 16.3901 125.759 15.5789C125.378 14.7589 125.184 13.7994 125.184 12.7004C125.184 11.3047 125.555 10.0923 126.298 9.03682C127.041 7.99009 128.067 7.17888 129.375 6.60318C130.684 6.02747 132.196 5.73962 133.903 5.73962C135.415 5.73962 136.838 5.98386 138.191 6.47233C139.535 6.96081 140.623 7.63246 141.436 8.48729C141.932 8.94959 142.179 9.40318 142.179 9.83931C142.179 10.2057 142.029 10.5459 141.719 10.8424C141.41 11.1477 141.056 11.296 140.658 11.296C140.384 11.296 140.137 11.2001 139.916 10.9994C139.491 10.5371 138.961 10.1184 138.315 9.75209C137.67 9.38573 136.962 9.08916 136.202 8.87109C135.432 8.65302 134.663 8.53962 133.903 8.53962C132.762 8.53962 131.763 8.70536 130.896 9.03682C130.03 9.36828 129.358 9.83059 128.871 10.4325C128.385 11.0343 128.146 11.7409 128.146 12.5783C128.146 13.5029 128.42 14.2705 128.96 14.8636C129.508 15.4655 130.233 15.954 131.153 16.329C132.072 16.7041 133.08 17.0443 134.194 17.3321C135.406 17.6287 136.529 17.9602 137.555 18.3353C138.58 18.7103 139.465 19.1814 140.207 19.7483C140.95 20.3066 141.525 21.0219 141.932 21.8941C142.338 22.7577 142.542 23.8306 142.542 25.0954C142.542 26.4387 142.162 27.6337 141.392 28.6804C140.623 29.7272 139.58 30.5558 138.253 31.149C136.927 31.7508 135.441 32.0561 133.779 32.0823L133.797 32.1172Z" fill="#1A1A1A"/>
<path d="M171.147 6.78626C171.572 6.78626 171.934 6.93455 172.209 7.2224C172.492 7.51897 172.633 7.8766 172.633 8.2953V30.2766C172.633 30.6691 172.483 31.0093 172.191 31.3059C171.899 31.6025 171.545 31.742 171.147 31.742C170.714 31.742 170.36 31.5937 170.086 31.3059C169.803 31.0093 169.662 30.6691 169.662 30.2766V24.4673L170.502 24.0747C170.502 24.9906 170.246 25.9152 169.733 26.8573C169.22 27.7993 168.521 28.6803 167.628 29.4916C166.735 30.3028 165.692 30.9657 164.48 31.4716C163.278 31.9775 161.978 32.2305 160.589 32.2305C158.343 32.2305 156.336 31.6635 154.577 30.5208C152.808 29.3782 151.42 27.8168 150.421 25.828C149.412 23.8392 148.908 21.6149 148.908 19.1377C148.908 16.6604 149.421 14.3576 150.447 12.4212C151.473 10.4847 152.852 8.95822 154.603 7.85044C156.354 6.74265 158.335 6.19312 160.545 6.19312C161.96 6.19312 163.295 6.43735 164.533 6.92583C165.771 7.4143 166.85 8.08595 167.778 8.93206C168.698 9.77816 169.423 10.7464 169.936 11.8367C170.449 12.9271 170.705 14.061 170.705 15.2299L169.662 14.4972V8.2953C169.662 7.8766 169.803 7.51025 170.086 7.2224C170.369 6.92583 170.723 6.78626 171.147 6.78626ZM160.846 29.5003C162.597 29.5003 164.144 29.0554 165.497 28.157C166.85 27.2585 167.911 26.0286 168.689 24.4411C169.467 22.8623 169.856 21.0916 169.856 19.1377C169.856 17.1838 169.467 15.4916 168.689 13.9564C167.911 12.4299 166.85 11.2087 165.497 10.2928C164.144 9.38564 162.588 8.92333 160.846 8.92333C159.104 8.92333 157.583 9.35947 156.212 10.2405C154.842 11.1215 153.772 12.3252 152.994 13.8517C152.216 15.3869 151.826 17.1402 151.826 19.1289C151.826 21.1177 152.216 22.8535 152.994 24.4324C153.772 26.0112 154.833 27.2498 156.186 28.1483C157.539 29.0467 159.086 29.4916 160.837 29.4916L160.846 29.5003Z" fill="#1A1A1A"/>
<path d="M195.314 6.2019C197.489 6.2019 199.231 6.63804 200.54 7.49287C201.84 8.35642 202.786 9.52527 203.361 11.0081C203.936 12.491 204.227 14.1309 204.227 15.919V30.2767C204.227 30.6692 204.077 31.0094 203.785 31.306C203.493 31.6025 203.14 31.7421 202.742 31.7421C202.282 31.7421 201.919 31.5938 201.654 31.306C201.389 31.0094 201.256 30.6692 201.256 30.2767V16.0673C201.256 14.7676 201.044 13.5726 200.611 12.4997C200.177 11.4268 199.479 10.5633 198.506 9.90907C197.534 9.25486 196.251 8.93212 194.669 8.93212C193.245 8.93212 191.901 9.25486 190.636 9.90907C189.363 10.5633 188.337 11.4268 187.541 12.4997C186.746 13.5726 186.357 14.7676 186.357 16.0673V30.2854C186.357 30.6779 186.206 31.0181 185.914 31.3147C185.614 31.6113 185.269 31.7508 184.871 31.7508C184.411 31.7508 184.049 31.6025 183.783 31.3147C183.518 31.0181 183.385 30.6779 183.385 30.2854V8.40004C183.385 8.00751 183.527 7.66732 183.81 7.37075C184.093 7.07418 184.447 6.93461 184.871 6.93461C185.295 6.93461 185.658 7.0829 185.932 7.37075C186.215 7.66732 186.357 8.00751 186.357 8.40004V12.4997L185.216 14.2617C185.278 13.2237 185.623 12.2206 186.233 11.2611C186.843 10.3016 187.63 9.43804 188.585 8.67044C189.54 7.90284 190.61 7.30097 191.777 6.86483C192.944 6.4287 194.129 6.2019 195.314 6.2019Z" fill="#1A1A1A"/>
<path d="M232.736 6.07971C233.16 6.07971 233.505 6.228 233.779 6.51585C234.053 6.81242 234.186 7.16133 234.186 7.58002V22.1208C234.186 24.0049 233.744 25.6884 232.869 27.1713C231.993 28.6629 230.808 29.8405 229.323 30.704C227.837 31.5676 226.157 32.0037 224.274 32.0037C222.39 32.0037 220.666 31.5676 219.171 30.704C217.677 29.8405 216.492 28.6629 215.626 27.1713C214.759 25.6797 214.326 23.9962 214.326 22.1208V7.58002C214.326 7.16133 214.467 6.81242 214.75 6.51585C215.033 6.21928 215.413 6.07971 215.882 6.07971C216.28 6.07971 216.634 6.228 216.943 6.51585C217.253 6.81242 217.403 7.16133 217.403 7.58002V22.1208C217.403 23.4641 217.712 24.6592 218.331 25.7059C218.95 26.7526 219.782 27.5813 220.834 28.1744C221.886 28.7763 223.027 29.0729 224.265 29.0729C225.503 29.0729 226.688 28.7763 227.758 28.1744C228.819 27.5725 229.685 26.7526 230.34 25.7059C230.994 24.6592 231.321 23.4641 231.321 22.1208V7.58002C231.321 7.16133 231.445 6.81242 231.692 6.51585C231.94 6.21928 232.285 6.07971 232.736 6.07971Z" fill="#1A1A1A"/>
<path d="M241.923 6.89097H253.463C253.861 6.89097 254.188 7.03053 254.453 7.30966C254.718 7.58879 254.851 7.92025 254.851 8.31277C254.851 8.67041 254.718 8.98442 254.453 9.23738C254.188 9.49034 253.861 9.62991 253.463 9.62991H241.923C241.525 9.62991 241.189 9.49034 240.906 9.21122C240.623 8.93209 240.482 8.61807 240.482 8.26044C240.482 7.86791 240.623 7.54517 240.906 7.28349C241.189 7.02181 241.525 6.89097 241.923 6.89097ZM247.025 0C247.45 0 247.812 0.148287 248.087 0.436137C248.369 0.73271 248.511 1.0729 248.511 1.46542V25.9851C248.511 26.9009 248.635 27.5813 248.882 28.0349C249.13 28.4885 249.448 28.7938 249.846 28.9421C250.244 29.0903 250.642 29.1601 251.031 29.1601C251.296 29.1601 251.535 29.1165 251.747 29.038C251.96 28.9595 252.198 28.9159 252.464 28.9159C252.764 28.9159 253.012 29.0293 253.233 29.2561C253.445 29.4829 253.551 29.7794 253.551 30.1371C253.551 30.5907 253.286 30.9745 252.755 31.2885C252.225 31.6025 251.597 31.7508 250.872 31.7508C250.571 31.7508 250.129 31.7246 249.537 31.681C248.944 31.6287 248.334 31.4542 247.706 31.1402C247.078 30.8349 246.557 30.2854 246.15 29.5003C245.743 28.7153 245.531 27.5988 245.531 26.1333V1.46542C245.531 1.0729 245.673 0.73271 245.955 0.436137C246.238 0.139564 246.592 0 247.017 0H247.025Z" fill="#1A1A1A"/>
<path d="M270.237 32.1172C268.407 32.1172 266.797 31.8468 265.409 31.3147C264.021 30.7826 262.686 29.9191 261.403 28.7502C261.226 28.5758 261.085 28.3926 260.979 28.1832C260.864 27.9739 260.811 27.7471 260.811 27.5029C260.811 27.1103 260.952 26.7614 261.235 26.4561C261.518 26.1508 261.872 26.0026 262.296 26.0026C262.641 26.0026 262.951 26.1334 263.225 26.4038C264.189 27.3284 265.232 28.0437 266.364 28.5321C267.487 29.0206 268.76 29.2649 270.166 29.2649C271.254 29.2649 272.235 29.0904 273.12 28.7502C273.995 28.41 274.694 27.9303 275.215 27.3197C275.737 26.7091 275.994 26.0026 275.994 25.1913C275.967 24.2144 275.675 23.4119 275.118 22.7751C274.561 22.1384 273.792 21.6063 272.819 21.1789C271.838 20.7515 270.706 20.3938 269.424 20.0973C268.283 19.8269 267.239 19.4954 266.284 19.1116C265.329 18.7191 264.507 18.2393 263.817 17.6636C263.128 17.0879 262.588 16.3901 262.199 15.5789C261.819 14.7589 261.624 13.7994 261.624 12.7004C261.624 11.3047 261.996 10.0923 262.739 9.03682C263.481 7.99009 264.507 7.17888 265.816 6.60318C267.124 6.02747 268.637 5.73962 270.343 5.73962C271.855 5.73962 273.279 5.98386 274.632 6.47233C275.976 6.96081 277.064 7.63246 277.877 8.48729C278.372 8.94959 278.62 9.40318 278.62 9.83931C278.62 10.2057 278.469 10.5459 278.16 10.8424C277.85 11.1477 277.497 11.296 277.099 11.296C276.825 11.296 276.577 11.2001 276.356 10.9994C275.932 10.5371 275.401 10.1184 274.756 9.75209C274.11 9.38573 273.403 9.08916 272.642 8.87109C271.873 8.65302 271.104 8.53962 270.343 8.53962C269.202 8.53962 268.203 8.70536 267.337 9.03682C266.47 9.36828 265.798 9.83059 265.312 10.4325C264.825 11.0343 264.587 11.7409 264.587 12.5783C264.587 13.5029 264.861 14.2705 265.4 14.8636C265.948 15.4655 266.674 15.954 267.593 16.329C268.513 16.7041 269.521 17.0443 270.635 17.3321C271.846 17.6287 272.969 17.9602 273.995 18.3353C275.021 18.7103 275.905 19.1814 276.648 19.7483C277.391 20.3066 277.965 21.0219 278.372 21.8941C278.779 22.7577 278.982 23.8306 278.982 25.0954C278.982 26.4387 278.602 27.6337 277.833 28.6804C277.064 29.7272 276.02 30.5558 274.694 31.149C273.367 31.7508 271.882 32.0561 270.219 32.0823L270.237 32.1172Z" fill="#1A1A1A"/>
<path d="M72.0756 48.2804C72.6239 48.2804 73.0572 48.3851 73.3843 48.6031C73.7115 48.8212 73.9414 49.1091 74.0917 49.4841C74.2421 49.8592 74.3128 50.2605 74.3128 50.714V54.3078C74.3128 54.4038 74.2774 54.491 74.1979 54.5608C74.1183 54.6306 74.0387 54.6742 73.9414 54.6742C73.8265 54.6742 73.738 54.6393 73.6673 54.5608C73.5966 54.491 73.57 54.4038 73.57 54.3078V50.7577C73.57 50.4349 73.517 50.1383 73.4109 49.8679C73.3048 49.5975 73.1279 49.3795 72.8803 49.2225C72.6327 49.0567 72.3144 48.9782 71.9253 48.9782C71.5716 48.9782 71.2356 49.0567 70.9173 49.2225C70.5989 49.3882 70.3425 49.5975 70.1391 49.8679C69.9357 50.1383 69.8385 50.4349 69.8385 50.7577V54.3078C69.8385 54.4038 69.8031 54.491 69.7235 54.5608C69.6439 54.6306 69.5644 54.6742 69.4671 54.6742C69.3521 54.6742 69.2637 54.6393 69.193 54.5608C69.1311 54.491 69.0957 54.4038 69.0957 54.3078V48.8387C69.0957 48.7427 69.1311 48.6555 69.2018 48.5857C69.2726 48.5159 69.361 48.4723 69.4671 48.4723C69.5732 48.4723 69.6616 48.5072 69.7324 48.5857C69.8031 48.6642 69.8385 48.7427 69.8385 48.8387V49.8679L69.5555 50.3041C69.5732 50.0424 69.6528 49.7894 69.8119 49.5539C69.9623 49.3184 70.1568 49.1003 70.4044 48.9084C70.6432 48.7165 70.9084 48.5682 71.2002 48.4549C71.492 48.3415 71.7927 48.2891 72.0845 48.2891L72.0756 48.2804Z" fill="#1D1D1B"/>
<path d="M81.7759 48.4635C81.882 48.4635 81.9704 48.4984 82.0412 48.5769C82.1119 48.6554 82.1473 48.7339 82.1473 48.8299V52.2753C82.1473 53.0778 81.9174 53.6971 81.4575 54.1158C80.9977 54.5433 80.3699 54.7526 79.5918 54.7526C78.8136 54.7526 78.1946 54.5433 77.7437 54.1158C77.2839 53.6884 77.054 53.0778 77.054 52.2753V48.8299C77.054 48.7339 77.0893 48.6467 77.1601 48.5769C77.2308 48.5071 77.3192 48.4635 77.4253 48.4635C77.5315 48.4635 77.6199 48.4984 77.6906 48.5769C77.7614 48.6554 77.7967 48.7339 77.7967 48.8299V52.2753C77.7967 52.8598 77.9559 53.3046 78.2742 53.6099C78.5926 53.9152 79.0347 54.0635 79.5918 54.0635C80.1488 54.0635 80.6087 53.9152 80.927 53.6099C81.2453 53.3046 81.4133 52.8598 81.4133 52.2753V48.8299C81.4133 48.7339 81.4487 48.6467 81.5106 48.5769C81.5725 48.5071 81.6698 48.4635 81.7847 48.4635H81.7759Z" fill="#1D1D1B"/>
<path d="M84.4906 48.446H87.3733C87.4705 48.446 87.559 48.4809 87.6209 48.5507C87.6916 48.6205 87.7181 48.699 87.7181 48.8037C87.7181 48.8909 87.6828 48.9694 87.6209 49.0392C87.559 49.1002 87.4705 49.1351 87.3733 49.1351H84.4906C84.3933 49.1351 84.3049 49.1002 84.2342 49.0305C84.1634 48.9607 84.1281 48.8822 84.1281 48.795C84.1281 48.699 84.1634 48.6118 84.2342 48.5507C84.3049 48.4897 84.3933 48.4548 84.4906 48.4548V48.446ZM85.7639 46.7277C85.87 46.7277 85.9585 46.7626 86.0292 46.8411C86.0999 46.9196 86.1353 46.9981 86.1353 47.094V53.2261C86.1353 53.4529 86.1707 53.6274 86.2237 53.7407C86.2856 53.8541 86.3652 53.9326 86.4625 53.9675C86.5598 54.0024 86.657 54.0199 86.7631 54.0199C86.825 54.0199 86.8869 54.0112 86.94 53.9937C86.993 53.9763 87.0549 53.9588 87.1168 53.9588C87.1876 53.9588 87.2583 53.985 87.3114 54.046C87.3644 54.1071 87.391 54.1769 87.391 54.2641C87.391 54.3775 87.3291 54.4735 87.1964 54.552C87.0638 54.6305 86.9046 54.6654 86.7278 54.6654C86.657 54.6654 86.5421 54.6654 86.3917 54.6479C86.2414 54.6305 86.0911 54.5869 85.9319 54.5171C85.7728 54.4473 85.6401 54.299 85.5429 54.1071C85.4367 53.9152 85.3925 53.6274 85.3925 53.261V47.094C85.3925 46.9981 85.4279 46.9108 85.4986 46.8411C85.5694 46.7713 85.6578 46.7277 85.7639 46.7277Z" fill="#1D1D1B"/>
<path d="M89.7872 53.6797C89.7165 53.5838 89.6899 53.4878 89.6899 53.3919C89.6899 53.2959 89.743 53.2261 89.8403 53.1651C89.911 53.1127 89.9817 53.0866 90.0702 53.0953C90.1586 53.0953 90.2382 53.1476 90.3089 53.2174C90.53 53.5052 90.8041 53.732 91.1224 53.9065C91.4408 54.081 91.821 54.1682 92.2543 54.1682C92.4842 54.1682 92.7141 54.1333 92.944 54.0548C93.1739 53.9763 93.3596 53.8629 93.5099 53.6972C93.6602 53.5401 93.731 53.3395 93.731 53.0953C93.731 52.851 93.6602 52.6417 93.5099 52.4847C93.3596 52.3277 93.1651 52.2056 92.9352 52.1183C92.6964 52.0311 92.4488 51.9526 92.1835 51.8828C91.9006 51.813 91.6265 51.7258 91.37 51.6299C91.1048 51.5339 90.8748 51.4205 90.6715 51.2722C90.4681 51.1327 90.3089 50.9582 90.1851 50.7489C90.0613 50.5482 89.9994 50.2953 89.9994 50.0074C89.9994 49.6672 90.0967 49.3619 90.2824 49.1003C90.4681 48.8386 90.7334 48.638 91.0605 48.4897C91.3877 48.3414 91.7591 48.2716 92.1659 48.2716C92.3692 48.2716 92.5991 48.2978 92.8379 48.3501C93.0766 48.4024 93.3154 48.4897 93.5453 48.6118C93.7752 48.7339 93.9874 48.8996 94.1643 49.109C94.235 49.1788 94.2792 49.266 94.2792 49.3619C94.2792 49.4579 94.235 49.5364 94.1554 49.6149C94.0847 49.6672 94.0139 49.6847 93.9255 49.6847C93.8371 49.6847 93.7664 49.6498 93.7045 49.5887C93.5099 49.3707 93.2712 49.2049 92.9971 49.0915C92.7229 48.9781 92.4311 48.9171 92.1216 48.9171C91.8829 48.9171 91.653 48.952 91.4496 49.0305C91.2374 49.109 91.0605 49.2224 90.9279 49.3794C90.7864 49.5364 90.7157 49.737 90.7157 49.99C90.7334 50.2255 90.8129 50.4174 90.9721 50.5657C91.1313 50.714 91.3258 50.8361 91.5822 50.932C91.8298 51.028 92.1128 51.1152 92.4311 51.2024C92.6964 51.2635 92.944 51.342 93.1916 51.438C93.4392 51.5252 93.6514 51.6386 93.8371 51.7694C94.0228 51.9003 94.1731 52.0747 94.2792 52.2753C94.3853 52.476 94.4472 52.7377 94.4472 53.0429C94.4472 53.4006 94.3411 53.7146 94.1466 53.9676C93.9432 54.2292 93.6779 54.4299 93.3331 54.5694C92.9882 54.709 92.6168 54.7788 92.2101 54.7788C91.7679 54.7788 91.3347 54.6915 90.9191 54.5258C90.5035 54.3514 90.1321 54.0722 89.8137 53.671L89.7872 53.6797Z" fill="#1D1D1B"/>
<path d="M114.458 54.2903C114.458 54.3949 114.405 54.4822 114.325 54.5607C114.246 54.6305 114.157 54.6741 114.06 54.6741C113.945 54.6741 113.848 54.6392 113.786 54.5607C113.715 54.4909 113.68 54.3949 113.68 54.2903V46.5009C113.68 46.3962 113.715 46.309 113.795 46.2305C113.874 46.152 113.963 46.1171 114.078 46.1171C114.175 46.1171 114.263 46.152 114.343 46.2305C114.423 46.309 114.458 46.3962 114.458 46.5009V54.2903Z" fill="#1D1D1B"/>
<path d="M139.314 45.6287C139.421 45.6287 139.509 45.6635 139.58 45.7333C139.65 45.8031 139.686 45.8903 139.686 45.995V54.2991C139.686 54.395 139.65 54.4822 139.571 54.552C139.491 54.6218 139.412 54.6654 139.314 54.6654C139.208 54.6654 139.12 54.6305 139.049 54.552C138.978 54.4735 138.943 54.395 138.943 54.2991V52.8424L139.155 52.6679C139.155 52.8947 139.093 53.1302 138.97 53.3832C138.846 53.6274 138.669 53.8629 138.439 54.0723C138.209 54.2816 137.953 54.4561 137.643 54.5869C137.334 54.7177 137.015 54.7788 136.67 54.7788C136.113 54.7788 135.618 54.6392 135.176 54.3514C134.734 54.0635 134.389 53.6797 134.133 53.1913C133.876 52.7028 133.752 52.1445 133.752 51.5165C133.752 50.8885 133.876 50.3389 134.133 49.8505C134.389 49.362 134.734 48.9695 135.176 48.6903C135.609 48.4112 136.105 48.2716 136.662 48.2716C136.998 48.2716 137.325 48.3327 137.625 48.4548C137.935 48.5769 138.2 48.7427 138.439 48.952C138.678 49.1614 138.863 49.4056 138.996 49.676C139.129 49.9464 139.199 50.2343 139.199 50.5221L138.943 50.3389V45.9776C138.943 45.8816 138.978 45.7944 139.049 45.7246C139.12 45.6548 139.208 45.6112 139.314 45.6112V45.6287ZM136.741 54.1072C137.183 54.1072 137.581 53.9938 137.908 53.7757C138.236 53.5576 138.51 53.2436 138.704 52.8598C138.899 52.476 138.996 52.0311 138.996 51.5339C138.996 51.0368 138.899 50.6093 138.704 50.2255C138.51 49.8417 138.244 49.5364 137.908 49.3096C137.572 49.0829 137.183 48.9695 136.741 48.9695C136.299 48.9695 135.928 49.0829 135.583 49.3096C135.238 49.5364 134.973 49.8417 134.778 50.2255C134.584 50.6093 134.486 51.0455 134.486 51.5339C134.486 52.0224 134.584 52.4586 134.778 52.8511C134.973 53.2436 135.238 53.5489 135.583 53.7757C135.928 54.0025 136.308 54.1072 136.741 54.1072Z" fill="#1D1D1B"/>
<path d="M142.807 54.6654C142.692 54.6654 142.604 54.6306 142.533 54.552C142.471 54.4823 142.436 54.395 142.436 54.2991V48.8299C142.436 48.734 142.471 48.6468 142.542 48.577C142.613 48.5072 142.701 48.4636 142.807 48.4636C142.913 48.4636 143.002 48.4985 143.072 48.577C143.143 48.6555 143.179 48.734 143.179 48.8299V50.6617L142.993 50.6966C143.019 50.4087 143.09 50.1296 143.214 49.8505C143.329 49.5714 143.497 49.3097 143.7 49.0742C143.904 48.8387 144.151 48.6468 144.434 48.4985C144.717 48.3502 145.035 48.2804 145.389 48.2804C145.54 48.2804 145.681 48.3066 145.822 48.3676C145.964 48.4287 146.035 48.5246 146.035 48.6642C146.035 48.7863 145.999 48.8823 145.937 48.9433C145.867 49.0044 145.796 49.0393 145.699 49.0393C145.628 49.0393 145.548 49.0218 145.46 48.9782C145.372 48.9346 145.257 48.9172 145.124 48.9172C144.894 48.9172 144.664 48.9869 144.434 49.1178C144.204 49.2486 143.992 49.4318 143.806 49.6586C143.621 49.8854 143.47 50.1383 143.355 50.4262C143.24 50.7053 143.187 50.9932 143.187 51.2723V54.2904C143.187 54.3863 143.152 54.4735 143.072 54.5433C142.993 54.6131 142.913 54.6567 142.816 54.6567L142.807 54.6654Z" fill="#1D1D1B"/>
<path d="M148.351 47.4953C148.175 47.4953 148.051 47.4604 147.962 47.3819C147.874 47.3034 147.83 47.19 147.83 47.0504V46.9283C147.83 46.78 147.874 46.6666 147.971 46.5881C148.068 46.5096 148.192 46.4747 148.36 46.4747C148.519 46.4747 148.634 46.5096 148.723 46.5881C148.811 46.6666 148.855 46.78 148.855 46.9283V47.0504C148.855 47.1987 148.811 47.3121 148.723 47.3819C148.634 47.4604 148.511 47.4953 148.343 47.4953H148.351ZM148.723 54.299C148.723 54.395 148.687 54.4822 148.608 54.552C148.528 54.6218 148.449 54.6654 148.351 54.6654C148.245 54.6654 148.157 54.6305 148.086 54.552C148.015 54.4735 147.98 54.395 147.98 54.299V48.6816C147.98 48.5856 148.015 48.4984 148.086 48.4286C148.157 48.3588 148.245 48.3152 148.351 48.3152C148.458 48.3152 148.546 48.3501 148.617 48.4286C148.687 48.4984 148.723 48.5856 148.723 48.6816V54.299Z" fill="#1D1D1B"/>
<path d="M154.32 54.7876C153.684 54.7876 153.126 54.6567 152.64 54.3863C152.154 54.1159 151.774 53.7408 151.499 53.2611C151.225 52.7813 151.093 52.2231 151.093 51.5776C151.093 50.8885 151.234 50.2953 151.508 49.8069C151.782 49.3184 152.145 48.9433 152.587 48.6729C153.029 48.4112 153.498 48.2804 153.993 48.2804C154.356 48.2804 154.709 48.3415 155.054 48.4723C155.399 48.6031 155.7 48.7863 155.974 49.0306C156.239 49.2748 156.46 49.5801 156.619 49.9377C156.778 50.2954 156.867 50.714 156.885 51.1851C156.885 51.281 156.831 51.3682 156.761 51.438C156.69 51.5078 156.602 51.5427 156.504 51.5427H151.544L151.393 50.8798H156.274L156.115 51.0281V50.7838C156.08 50.4 155.956 50.0773 155.744 49.8069C155.532 49.5365 155.266 49.3358 154.966 49.1963C154.656 49.0567 154.338 48.9869 154.011 48.9869C153.763 48.9869 153.507 49.0393 153.25 49.1352C152.994 49.2312 152.755 49.3882 152.543 49.5888C152.331 49.7982 152.163 50.0598 152.03 50.3826C151.897 50.7053 151.835 51.0891 151.835 51.5253C151.835 52.005 151.933 52.4411 152.136 52.8337C152.331 53.2262 152.622 53.5315 152.994 53.7583C153.365 53.9851 153.816 54.0985 154.338 54.0985C154.63 54.0985 154.886 54.0549 155.116 53.9763C155.346 53.8978 155.549 53.7844 155.726 53.6536C155.903 53.5228 156.044 53.3745 156.159 53.2349C156.248 53.1651 156.345 53.1215 156.434 53.1215C156.513 53.1215 156.593 53.1564 156.655 53.2175C156.717 53.2785 156.752 53.357 156.752 53.4355C156.752 53.5315 156.708 53.6187 156.628 53.6885C156.381 53.9851 156.062 54.238 155.664 54.4561C155.266 54.6742 154.833 54.7788 154.364 54.7788L154.32 54.7876Z" fill="#1D1D1B"/>
<path d="M164.445 45.6287C164.551 45.6287 164.639 45.6635 164.71 45.7333C164.781 45.8031 164.816 45.8903 164.816 45.995V54.2991C164.816 54.395 164.781 54.4822 164.701 54.552C164.622 54.6218 164.542 54.6654 164.445 54.6654C164.339 54.6654 164.25 54.6305 164.18 54.552C164.109 54.4735 164.073 54.395 164.073 54.2991V52.8424L164.286 52.6679C164.286 52.8947 164.224 53.1302 164.1 53.3832C163.976 53.6274 163.799 53.8629 163.578 54.0723C163.357 54.2816 163.083 54.4561 162.782 54.5869C162.482 54.7177 162.155 54.7788 161.81 54.7788C161.262 54.7788 160.758 54.6392 160.315 54.3514C159.873 54.0635 159.528 53.6797 159.272 53.1913C159.016 52.7028 158.892 52.1445 158.892 51.5165C158.892 50.8885 159.016 50.3389 159.272 49.8505C159.528 49.362 159.873 48.9695 160.315 48.6903C160.758 48.4112 161.244 48.2716 161.801 48.2716C162.137 48.2716 162.464 48.3327 162.765 48.4548C163.065 48.5769 163.34 48.7427 163.578 48.952C163.817 49.1614 164.003 49.4056 164.135 49.676C164.268 49.9464 164.339 50.2343 164.339 50.5221L164.082 50.3389V45.9776C164.082 45.8816 164.118 45.7944 164.188 45.7246C164.259 45.6548 164.348 45.6112 164.454 45.6112L164.445 45.6287ZM161.872 54.1072C162.314 54.1072 162.703 53.9938 163.039 53.7757C163.375 53.5489 163.64 53.2436 163.835 52.8598C164.029 52.476 164.127 52.0311 164.127 51.5339C164.127 51.0368 164.029 50.6093 163.835 50.2255C163.64 49.8417 163.375 49.5364 163.039 49.3096C162.703 49.0829 162.314 48.9695 161.872 48.9695C161.43 48.9695 161.058 49.0829 160.713 49.3096C160.368 49.5364 160.103 49.8417 159.909 50.2255C159.714 50.6093 159.617 51.0455 159.617 51.5339C159.617 52.0224 159.714 52.4586 159.909 52.8511C160.103 53.2436 160.368 53.5489 160.713 53.7757C161.058 54.0025 161.438 54.1072 161.872 54.1072Z" fill="#1D1D1B"/>
<path d="M174.508 48.5507C174.605 48.5507 174.693 48.5856 174.755 48.6467C174.817 48.7078 174.853 48.795 174.853 48.8909C174.853 48.9869 174.817 49.0741 174.755 49.1352C174.685 49.1962 174.605 49.2311 174.508 49.2311H171.475C171.386 49.2311 171.307 49.1962 171.236 49.1264C171.165 49.0567 171.13 48.9782 171.13 48.8909C171.13 48.7863 171.165 48.699 171.236 48.638C171.307 48.5769 171.386 48.5507 171.475 48.5507H174.508ZM174.039 45.681C174.163 45.681 174.296 45.6897 174.446 45.7159C174.587 45.742 174.72 45.7856 174.826 45.8467C174.932 45.9078 174.985 46.0037 174.985 46.1258C174.985 46.2131 174.95 46.2916 174.888 46.3613C174.826 46.4311 174.746 46.466 174.667 46.466C174.587 46.466 174.481 46.4398 174.357 46.3962C174.234 46.3526 174.101 46.3264 173.959 46.3264C173.783 46.3264 173.641 46.3613 173.517 46.4398C173.394 46.5183 173.296 46.623 173.234 46.7713C173.173 46.9109 173.137 47.0853 173.137 47.2859V54.299C173.137 54.395 173.102 54.4822 173.031 54.552C172.96 54.6218 172.872 54.6654 172.766 54.6654C172.66 54.6654 172.571 54.6305 172.5 54.552C172.43 54.4735 172.394 54.395 172.394 54.299V47.2859C172.394 46.7626 172.554 46.3701 172.863 46.0909C173.173 45.8118 173.57 45.6722 174.057 45.6722L174.039 45.681Z" fill="#1D1D1B"/>
<path d="M177.382 54.6654C177.267 54.6654 177.178 54.6306 177.107 54.552C177.046 54.4823 177.01 54.395 177.01 54.2991V48.8299C177.01 48.734 177.046 48.6468 177.116 48.577C177.187 48.5072 177.275 48.4636 177.382 48.4636C177.488 48.4636 177.576 48.4985 177.647 48.577C177.718 48.6555 177.753 48.734 177.753 48.8299V50.6617L177.567 50.6966C177.594 50.4087 177.664 50.1296 177.788 49.8505C177.903 49.5714 178.071 49.3097 178.275 49.0742C178.478 48.8387 178.726 48.6468 179.009 48.4985C179.292 48.3502 179.61 48.2804 179.964 48.2804C180.114 48.2804 180.255 48.3066 180.397 48.3676C180.538 48.4287 180.609 48.5246 180.609 48.6642C180.609 48.7863 180.574 48.8823 180.512 48.9433C180.441 49.0044 180.37 49.0393 180.273 49.0393C180.202 49.0393 180.123 49.0218 180.034 48.9782C179.946 48.9346 179.831 48.9172 179.698 48.9172C179.468 48.9172 179.238 48.9869 179.009 49.1178C178.779 49.2486 178.566 49.4318 178.381 49.6586C178.195 49.8854 178.045 50.1383 177.93 50.4262C177.815 50.7053 177.762 50.9932 177.762 51.2723V54.2904C177.762 54.3863 177.726 54.4735 177.647 54.5433C177.567 54.6131 177.488 54.6567 177.39 54.6567L177.382 54.6654Z" fill="#1D1D1B"/>
<path d="M187.312 48.4635C187.418 48.4635 187.506 48.4984 187.577 48.5769C187.648 48.6554 187.683 48.7339 187.683 48.8299V52.2753C187.683 53.0778 187.453 53.6971 186.993 54.1158C186.534 54.5433 185.906 54.7526 185.128 54.7526C184.35 54.7526 183.731 54.5433 183.28 54.1158C182.82 53.6884 182.59 53.0778 182.59 52.2753V48.8299C182.59 48.7339 182.625 48.6467 182.696 48.5769C182.767 48.5071 182.855 48.4635 182.961 48.4635C183.067 48.4635 183.156 48.4984 183.227 48.5769C183.297 48.6554 183.333 48.7339 183.333 48.8299V52.2753C183.333 52.8598 183.492 53.3046 183.81 53.6099C184.128 53.9152 184.571 54.0635 185.128 54.0635C185.685 54.0635 186.145 53.9152 186.463 53.6099C186.781 53.3046 186.949 52.8598 186.949 52.2753V48.8299C186.949 48.7339 186.985 48.6467 187.046 48.5769C187.108 48.5071 187.206 48.4635 187.321 48.4635H187.312Z" fill="#1D1D1B"/>
<path d="M190.778 47.4953C190.601 47.4953 190.477 47.4604 190.389 47.3819C190.3 47.3034 190.256 47.19 190.256 47.0504V46.9283C190.256 46.78 190.3 46.6666 190.398 46.5881C190.495 46.5096 190.619 46.4747 190.787 46.4747C190.946 46.4747 191.061 46.5096 191.149 46.5881C191.238 46.6666 191.282 46.78 191.282 46.9283V47.0504C191.282 47.1987 191.238 47.3121 191.149 47.3819C191.061 47.4604 190.937 47.4953 190.769 47.4953H190.778ZM191.149 54.299C191.149 54.395 191.114 54.4822 191.034 54.552C190.955 54.6218 190.875 54.6654 190.778 54.6654C190.672 54.6654 190.583 54.6305 190.513 54.552C190.442 54.4735 190.407 54.395 190.407 54.299V48.6816C190.407 48.5856 190.442 48.4984 190.513 48.4286C190.583 48.3588 190.672 48.3152 190.778 48.3152C190.884 48.3152 190.972 48.3501 191.043 48.4286C191.114 48.4984 191.149 48.5856 191.149 48.6816V54.299Z" fill="#1D1D1B"/>
<path d="M193.475 48.446H196.358C196.455 48.446 196.543 48.4809 196.605 48.5507C196.676 48.6205 196.702 48.699 196.702 48.8037C196.702 48.8909 196.667 48.9694 196.605 49.0392C196.543 49.1002 196.455 49.1351 196.358 49.1351H193.475C193.378 49.1351 193.289 49.1002 193.219 49.0305C193.148 48.9607 193.112 48.8822 193.112 48.795C193.112 48.699 193.148 48.6118 193.219 48.5507C193.289 48.4897 193.378 48.4548 193.475 48.4548V48.446ZM194.748 46.7277C194.854 46.7277 194.943 46.7626 195.014 46.8411C195.084 46.9196 195.12 46.9981 195.12 47.094V53.2261C195.12 53.4529 195.155 53.6274 195.208 53.7407C195.27 53.8541 195.35 53.9326 195.447 53.9675C195.544 54.0024 195.641 54.0199 195.748 54.0199C195.809 54.0199 195.871 54.0112 195.924 53.9937C195.977 53.9763 196.039 53.9588 196.101 53.9588C196.172 53.9588 196.243 53.985 196.296 54.046C196.349 54.1071 196.375 54.1769 196.375 54.2641C196.375 54.3775 196.313 54.4735 196.181 54.552C196.048 54.6305 195.889 54.6654 195.712 54.6654C195.641 54.6654 195.526 54.6654 195.376 54.6479C195.226 54.6305 195.075 54.5869 194.916 54.5171C194.757 54.4473 194.625 54.299 194.527 54.1071C194.421 53.9152 194.377 53.6274 194.377 53.261V47.094C194.377 46.9981 194.412 46.9108 194.483 46.8411C194.554 46.7713 194.642 46.7277 194.748 46.7277Z" fill="#1D1D1B"/>
<path d="M198.772 53.6797C198.701 53.5838 198.674 53.4878 198.674 53.3919C198.674 53.2959 198.727 53.2261 198.825 53.1651C198.895 53.1127 198.966 53.0866 199.055 53.0953C199.143 53.0953 199.223 53.1476 199.293 53.2174C199.514 53.5052 199.788 53.732 200.107 53.9065C200.425 54.081 200.805 54.1682 201.239 54.1682C201.469 54.1682 201.698 54.1333 201.928 54.0548C202.158 53.9763 202.344 53.8629 202.494 53.6972C202.645 53.5401 202.715 53.3395 202.715 53.0953C202.715 52.851 202.645 52.6417 202.494 52.4847C202.344 52.3277 202.149 52.2056 201.92 52.1183C201.681 52.0311 201.433 51.9526 201.168 51.8828C200.885 51.813 200.611 51.7258 200.354 51.6299C200.089 51.5339 199.859 51.4205 199.656 51.2722C199.452 51.1327 199.293 50.9582 199.17 50.7489C199.046 50.5482 198.984 50.2953 198.984 50.0074C198.984 49.6672 199.081 49.3619 199.267 49.1003C199.452 48.8386 199.718 48.638 200.045 48.4897C200.372 48.3414 200.743 48.2716 201.15 48.2716C201.354 48.2716 201.584 48.2978 201.822 48.3501C202.061 48.4024 202.3 48.4897 202.53 48.6118C202.76 48.7339 202.972 48.8996 203.149 49.109C203.219 49.1788 203.264 49.266 203.264 49.3619C203.264 49.4579 203.219 49.5364 203.14 49.6149C203.069 49.6672 202.998 49.6847 202.91 49.6847C202.821 49.6847 202.751 49.6498 202.689 49.5887C202.494 49.3707 202.256 49.2049 201.981 49.0915C201.707 48.9781 201.416 48.9171 201.106 48.9171C200.867 48.9171 200.637 48.952 200.434 49.0305C200.222 49.109 200.045 49.2224 199.912 49.3794C199.771 49.5364 199.7 49.737 199.7 49.99C199.718 50.2255 199.797 50.4174 199.956 50.5657C200.116 50.714 200.31 50.8361 200.567 50.932C200.814 51.028 201.097 51.1152 201.416 51.2024C201.681 51.2635 201.928 51.342 202.176 51.438C202.424 51.5252 202.636 51.6386 202.821 51.7694C203.007 51.9003 203.157 52.0747 203.264 52.2753C203.37 52.476 203.432 52.7377 203.432 53.0429C203.432 53.4006 203.326 53.7146 203.131 53.9676C202.928 54.2292 202.662 54.4299 202.317 54.5694C201.973 54.709 201.601 54.7788 201.194 54.7788C200.752 54.7788 200.319 54.6915 199.903 54.5258C199.488 54.3514 199.116 54.0722 198.798 53.671L198.772 53.6797Z" fill="#1D1D1B"/>
<path d="M223.442 54.2903C223.442 54.3949 223.389 54.4822 223.31 54.5607C223.23 54.6392 223.142 54.6741 223.044 54.6741C222.93 54.6741 222.832 54.6392 222.762 54.5607C222.691 54.4822 222.655 54.3949 222.655 54.2903V46.5009C222.655 46.3962 222.691 46.309 222.77 46.2305C222.85 46.152 222.938 46.1171 223.053 46.1171C223.151 46.1171 223.239 46.152 223.319 46.2305C223.398 46.309 223.434 46.3962 223.434 46.5009V54.2903H223.442Z" fill="#1D1D1B"/>
<path d="M242.754 53.6797C242.684 53.5838 242.657 53.4878 242.657 53.3919C242.657 53.2959 242.71 53.2261 242.808 53.1651C242.878 53.1127 242.949 53.0866 243.037 53.0953C243.126 53.0953 243.205 53.1476 243.276 53.2174C243.497 53.5052 243.771 53.732 244.09 53.9065C244.408 54.081 244.788 54.1682 245.222 54.1682C245.451 54.1682 245.681 54.1333 245.911 54.0548C246.141 53.9763 246.327 53.8629 246.477 53.6972C246.628 53.5401 246.698 53.3395 246.698 53.0953C246.698 52.851 246.628 52.6417 246.477 52.4847C246.327 52.3277 246.132 52.2056 245.902 52.1183C245.664 52.0311 245.416 51.9526 245.151 51.8828C244.868 51.813 244.594 51.7258 244.337 51.6299C244.072 51.5339 243.842 51.4205 243.639 51.2722C243.435 51.1327 243.276 50.9582 243.152 50.7489C243.029 50.5482 242.967 50.2953 242.967 50.0074C242.967 49.6672 243.064 49.3619 243.25 49.1003C243.435 48.8386 243.701 48.638 244.028 48.4897C244.355 48.3414 244.726 48.2716 245.133 48.2716C245.337 48.2716 245.566 48.2978 245.805 48.3501C246.044 48.4024 246.283 48.4897 246.513 48.6118C246.742 48.7339 246.955 48.8996 247.132 49.109C247.202 49.1788 247.246 49.266 247.246 49.3619C247.246 49.4579 247.202 49.5364 247.123 49.6149C247.052 49.6672 246.981 49.6847 246.893 49.6847C246.804 49.6847 246.734 49.6498 246.672 49.5887C246.477 49.3707 246.238 49.2049 245.964 49.0915C245.69 48.9781 245.398 48.9171 245.089 48.9171C244.85 48.9171 244.62 48.952 244.417 49.0305C244.205 49.109 244.028 49.2224 243.895 49.3794C243.754 49.5364 243.683 49.737 243.683 49.99C243.701 50.2255 243.78 50.4174 243.939 50.5657C244.099 50.714 244.293 50.8361 244.55 50.932C244.797 51.028 245.08 51.1152 245.398 51.2024C245.664 51.2635 245.911 51.342 246.159 51.438C246.406 51.5252 246.619 51.6386 246.804 51.7694C246.99 51.9003 247.14 52.0747 247.246 52.2753C247.353 52.476 247.414 52.7377 247.414 53.0429C247.414 53.4006 247.308 53.7146 247.114 53.9676C246.91 54.2292 246.645 54.4299 246.3 54.5694C245.955 54.709 245.584 54.7788 245.177 54.7788C244.735 54.7788 244.302 54.6915 243.886 54.5258C243.471 54.3514 243.099 54.0722 242.781 53.671L242.754 53.6797Z" fill="#1D1D1B"/>
<path d="M252.587 54.7876C251.951 54.7876 251.394 54.6567 250.907 54.3863C250.421 54.1159 250.041 53.7408 249.767 53.2611C249.492 52.7813 249.36 52.2231 249.36 51.5776C249.36 50.8885 249.501 50.2953 249.775 49.8069C250.05 49.3184 250.412 48.9433 250.854 48.6729C251.296 48.4112 251.765 48.2804 252.26 48.2804C252.623 48.2804 252.976 48.3415 253.321 48.4723C253.666 48.6031 253.967 48.7863 254.241 49.0306C254.506 49.2748 254.727 49.5801 254.886 49.9377C255.046 50.2954 255.134 50.714 255.152 51.1851C255.152 51.281 255.099 51.3682 255.028 51.438C254.957 51.5078 254.869 51.5427 254.771 51.5427H249.811L249.661 50.8798H254.542L254.382 51.0281V50.7838C254.347 50.4 254.223 50.0773 254.011 49.8069C253.799 49.5365 253.534 49.3358 253.233 49.1963C252.932 49.0567 252.605 48.9869 252.278 48.9869C252.03 48.9869 251.774 49.0393 251.517 49.1352C251.261 49.2312 251.022 49.3882 250.81 49.5888C250.598 49.7982 250.43 50.0598 250.297 50.3826C250.165 50.7053 250.103 51.0891 250.103 51.5253C250.103 52.005 250.2 52.4411 250.403 52.8337C250.598 53.2262 250.89 53.5315 251.261 53.7583C251.632 53.9851 252.083 54.0985 252.605 54.0985C252.897 54.0985 253.153 54.0549 253.383 53.9763C253.613 53.8978 253.816 53.7844 253.993 53.6536C254.17 53.5228 254.312 53.3745 254.427 53.2349C254.515 53.1651 254.612 53.1215 254.701 53.1215C254.78 53.1215 254.851 53.1564 254.922 53.2175C254.984 53.2785 255.01 53.357 255.01 53.4355C255.01 53.5315 254.966 53.6187 254.886 53.6885C254.639 53.9851 254.321 54.238 253.923 54.4561C253.525 54.6742 253.091 54.7788 252.623 54.7788L252.587 54.7876Z" fill="#1D1D1B"/>
<path d="M260.386 54.7876C259.75 54.7876 259.193 54.6567 258.706 54.3863C258.22 54.1159 257.84 53.7408 257.566 53.2611C257.292 52.7813 257.159 52.2231 257.159 51.5776C257.159 50.8885 257.3 50.2953 257.575 49.8069C257.849 49.3184 258.211 48.9433 258.653 48.6729C259.095 48.4112 259.564 48.2804 260.059 48.2804C260.422 48.2804 260.776 48.3415 261.12 48.4723C261.465 48.6031 261.766 48.7863 262.04 49.0306C262.305 49.2748 262.526 49.5801 262.686 49.9377C262.845 50.2954 262.933 50.714 262.951 51.1851C262.951 51.281 262.898 51.3682 262.827 51.438C262.756 51.5078 262.668 51.5427 262.571 51.5427H257.61L257.46 50.8798H262.341L262.181 51.0281V50.7838C262.146 50.4 262.022 50.0773 261.81 49.8069C261.598 49.5365 261.333 49.3358 261.032 49.1963C260.731 49.0567 260.404 48.9869 260.077 48.9869C259.829 48.9869 259.573 49.0393 259.317 49.1352C259.06 49.2312 258.821 49.3882 258.609 49.5888C258.397 49.7982 258.229 50.0598 258.096 50.3826C257.964 50.7053 257.902 51.0891 257.902 51.5253C257.902 52.005 257.999 52.4411 258.202 52.8337C258.397 53.2262 258.689 53.5315 259.06 53.7583C259.431 53.9851 259.882 54.0985 260.404 54.0985C260.696 54.0985 260.952 54.0549 261.182 53.9763C261.412 53.8978 261.616 53.7844 261.792 53.6536C261.969 53.5228 262.111 53.3745 262.226 53.2349C262.314 53.1651 262.411 53.1215 262.5 53.1215C262.579 53.1215 262.65 53.1564 262.721 53.2175C262.783 53.2785 262.809 53.357 262.809 53.4355C262.809 53.5315 262.765 53.6187 262.686 53.6885C262.438 53.9851 262.12 54.238 261.722 54.4561C261.324 54.6742 260.89 54.7788 260.422 54.7788L260.386 54.7876Z" fill="#1D1D1B"/>
<path d="M270.511 45.6287C270.617 45.6287 270.706 45.6635 270.776 45.7333C270.847 45.8031 270.883 45.8903 270.883 45.995V54.2991C270.883 54.395 270.847 54.4822 270.768 54.552C270.688 54.6218 270.608 54.6654 270.511 54.6654C270.405 54.6654 270.317 54.6305 270.246 54.552C270.175 54.4735 270.14 54.395 270.14 54.2991V52.8424L270.352 52.6679C270.352 52.8947 270.29 53.1302 270.166 53.3832C270.043 53.6274 269.866 53.8629 269.636 54.0723C269.406 54.2816 269.149 54.4561 268.84 54.5869C268.53 54.7177 268.212 54.7788 267.867 54.7788C267.31 54.7788 266.815 54.6392 266.373 54.3514C265.931 54.0635 265.586 53.6797 265.329 53.1913C265.073 52.7028 264.949 52.1445 264.949 51.5165C264.949 50.8885 265.073 50.3389 265.329 49.8505C265.586 49.362 265.931 48.9695 266.373 48.6903C266.806 48.4112 267.301 48.2716 267.858 48.2716C268.194 48.2716 268.522 48.3327 268.822 48.4548C269.132 48.5769 269.397 48.7427 269.636 48.952C269.875 49.1614 270.06 49.4056 270.193 49.676C270.325 49.9464 270.396 50.2343 270.396 50.5221L270.14 50.3389V45.9776C270.14 45.8816 270.175 45.7944 270.246 45.7246C270.317 45.6548 270.405 45.6112 270.511 45.6112V45.6287ZM267.938 54.1072C268.38 54.1072 268.778 53.9938 269.105 53.7757C269.432 53.5576 269.707 53.2436 269.901 52.8598C270.096 52.476 270.193 52.0311 270.193 51.5339C270.193 51.0368 270.096 50.6093 269.901 50.2255C269.707 49.8417 269.441 49.5364 269.105 49.3096C268.769 49.0829 268.38 48.9695 267.938 48.9695C267.496 48.9695 267.124 49.0829 266.78 49.3096C266.435 49.5364 266.169 49.8417 265.975 50.2255C265.78 50.6093 265.683 51.0455 265.683 51.5339C265.683 52.0224 265.78 52.4586 265.975 52.8511C266.169 53.2436 266.435 53.5489 266.78 53.7757C267.124 54.0025 267.505 54.1072 267.938 54.1072Z" fill="#1D1D1B"/>
<path d="M273.27 53.6797C273.199 53.5838 273.173 53.4878 273.182 53.3919C273.182 53.2959 273.235 53.2261 273.332 53.1651C273.394 53.1127 273.473 53.0866 273.562 53.0953C273.65 53.0953 273.73 53.1476 273.801 53.2174C274.022 53.5052 274.296 53.732 274.614 53.9065C274.933 54.081 275.313 54.1682 275.746 54.1682C275.976 54.1682 276.206 54.1333 276.436 54.0548C276.666 53.9763 276.851 53.8629 277.002 53.6972C277.152 53.5401 277.223 53.3395 277.223 53.0953C277.223 52.851 277.152 52.6417 277.002 52.4847C276.851 52.3277 276.666 52.2056 276.427 52.1183C276.188 52.0311 275.941 51.9526 275.675 51.8828C275.392 51.813 275.127 51.7258 274.862 51.6299C274.596 51.5339 274.367 51.4205 274.163 51.2722C273.96 51.1327 273.801 50.9582 273.677 50.7489C273.553 50.5482 273.491 50.2953 273.491 50.0074C273.491 49.6672 273.588 49.3619 273.774 49.1003C273.96 48.8386 274.225 48.638 274.552 48.4897C274.879 48.3414 275.251 48.2716 275.658 48.2716C275.861 48.2716 276.082 48.2978 276.33 48.3501C276.568 48.4024 276.807 48.4897 277.037 48.6118C277.267 48.7339 277.47 48.8996 277.656 49.109C277.727 49.1788 277.771 49.266 277.771 49.3619C277.771 49.4579 277.727 49.5364 277.647 49.6149C277.585 49.6672 277.506 49.6847 277.417 49.6847C277.329 49.6847 277.258 49.6498 277.196 49.5887C277.002 49.3707 276.763 49.2049 276.489 49.0915C276.215 48.9781 275.923 48.9171 275.613 48.9171C275.375 48.9171 275.154 48.952 274.941 49.0305C274.729 49.109 274.552 49.2224 274.42 49.3794C274.278 49.5364 274.207 49.737 274.207 49.99C274.225 50.2255 274.305 50.4174 274.464 50.5657C274.623 50.714 274.818 50.8361 275.074 50.932C275.33 51.028 275.605 51.1152 275.923 51.2024C276.188 51.2635 276.445 51.342 276.683 51.438C276.931 51.5252 277.143 51.6386 277.329 51.7694C277.515 51.9003 277.665 52.0747 277.771 52.2753C277.886 52.476 277.939 52.7377 277.939 53.0429C277.939 53.4006 277.842 53.7146 277.638 53.9676C277.435 54.2292 277.17 54.4299 276.825 54.5694C276.48 54.709 276.109 54.7788 275.702 54.7788C275.26 54.7788 274.826 54.6915 274.411 54.5258C273.995 54.3514 273.624 54.0722 273.305 53.671L273.27 53.6797Z" fill="#1D1D1B"/>
<path d="M12.4061 56H50.6767V33.8617C32.293 26.7352 13.2815 36.2255 12.4061 56Z" fill="#F09B00"/>
<path d="M50.6766 28.7415V6.01001C50.6766 6.01001 5.29667 12.3602 9.48804 56H10.9471C9.29351 33.382 29.1185 19.4343 50.6766 28.7415Z" fill="#96B223"/>
<path d="M32.3283 6.01001H0V56H7.13593C3.36017 35.868 10.8144 17.7334 32.3283 6.01001Z" fill="#4F3C27"/>
</g>
<defs>
<clipPath id="clip0_26_9">
<rect width="279" height="56" fill="white"/>
</clipPath>
</defs>
</svg>
